<svg width="170" height="67" viewBox="0 0 170 67" fill="none" xmlns="http://www.w3.org/2000/svg">
<g clip-path="url(#clip0_30_6447)">
<path d="M75.5151 48.4844C96.1736 60.4712 116.744 63.5328 121.46 55.323C126.177 47.1131 113.253 30.7405 92.5948 18.7537C71.9365 6.76697 51.3661 3.70515 46.6496 11.9151C41.9333 20.1249 54.8568 36.4977 75.5151 48.4844Z" stroke="#959595" stroke-width="0.5" stroke-miterlimit="10"/>
<path d="M71.9779 45.7565C88.8454 62.7084 107.926 71.0163 114.596 64.3131C121.266 57.6097 113 38.4334 96.1321 21.4815C79.2647 4.52974 60.1837 -3.77838 53.5137 2.92502C46.8438 9.6283 55.1104 28.8048 71.9779 45.7565Z" stroke="#CACACA" stroke-width="0.5" stroke-miterlimit="10"/>
<path d="M10.1042 41.0315C6.77083 41.0315 4.25 40.3196 2.54167 38.8959C0.847222 37.4721 0 35.3644 0 32.5727C0 29.5019 0.861111 27.2476 2.58333 25.8099C4.30556 24.3722 6.84722 23.6534 10.2083 23.6534C13.7917 23.6534 16.4167 24.3652 18.0833 25.789C19.75 27.1988 20.5833 29.2786 20.5833 32.0283C20.5833 35.1411 19.7014 37.4232 17.9375 38.8749C16.1736 40.3126 13.5625 41.0315 10.1042 41.0315ZM9.64583 33.6824H10.9167L11.5283 30.9877H9.02832L9.64583 33.6824Z" fill="black"/>
<path d="M21.5911 40.6546C21.4661 40.3615 21.3689 39.9916 21.2995 39.5449C21.23 39.0982 21.1884 38.6376 21.1745 38.163C21.1606 37.6745 21.1745 37.2069 21.2161 36.7602C21.2717 36.3136 21.3481 35.9437 21.4453 35.6505C21.6536 35.5668 21.855 35.4272 22.0495 35.2318C22.2578 35.0224 22.4314 34.6944 22.5703 34.2477C22.7092 33.7871 22.7786 33.145 22.7786 32.3215C22.7786 31.4281 22.6953 30.7581 22.5286 30.3115C22.3759 29.8509 22.1884 29.5438 21.9661 29.3902C21.7578 29.2227 21.5703 29.139 21.4036 29.139C21.2786 28.8877 21.1884 28.5457 21.1328 28.113C21.0773 27.6803 21.0495 27.2197 21.0495 26.7312C21.0634 26.2287 21.105 25.7471 21.1745 25.2865C21.2439 24.8119 21.3481 24.4071 21.487 24.0721C22.5148 24.114 23.4384 24.121 24.2578 24.093C25.0911 24.0651 25.9175 24.0232 26.737 23.9674C27.5703 23.9116 28.4731 23.8627 29.4453 23.8208C30.4314 23.765 31.5911 23.7371 32.9245 23.7371C34.8828 23.7371 36.5356 23.9116 37.8828 24.2605C39.23 24.5955 40.2509 25.2167 40.9453 26.124C41.6536 27.0173 42.0078 28.2945 42.0078 29.9555C42.0078 31.3932 41.737 32.5448 41.1953 33.4102C40.6675 34.2756 39.9036 34.9038 38.9036 35.2946C37.9036 35.6715 36.7023 35.8599 35.2995 35.8599C34.4106 35.8599 33.7023 35.7901 33.1745 35.6505C32.6467 35.497 32.1606 35.162 31.7161 34.6455L31.2786 35.0434C31.6398 35.4761 32.0773 35.8111 32.5911 36.0483C33.105 36.2717 33.7439 36.3973 34.5078 36.4252C34.6328 36.8161 34.6153 37.0134 34.8616 37.6877C34.9863 38.029 34.8616 38.1065 35.2783 38.944C35.4866 39.3627 35.8478 40.2142 35.695 40.619C35.0144 40.5631 32.7578 40.508 31.5495 40.4243C30.355 40.3405 28.987 40.3056 27.4453 40.3196C26.6675 40.3196 25.9036 40.3405 25.1536 40.3824C24.4036 40.4243 23.7161 40.4662 23.0911 40.508C22.48 40.5639 21.98 40.6127 21.5911 40.6546ZM31.2786 31.4212H32.5495L33.3828 30.0183H30.4453L31.2786 31.4212Z" fill="black"/>
<path d="M43.4748 40.6546C43.3637 40.3615 43.2734 39.9916 43.2039 39.5449C43.1345 39.0982 43.0928 38.6376 43.0789 38.163C43.0789 37.6745 43.0928 37.2069 43.1206 36.7602C43.1623 36.3136 43.2317 35.9437 43.3289 35.6505C43.5512 35.5668 43.7664 35.4272 43.9748 35.2318C44.1831 35.0224 44.3567 34.6944 44.4956 34.2477C44.6345 33.7871 45.5373 33.145 45.5373 32.3215C45.5373 31.4281 44.6206 30.7581 44.4539 30.3115C44.3012 29.8509 44.1137 29.5438 43.8914 29.3902C43.6831 29.2227 43.4956 29.139 43.3289 29.139C43.2039 28.8877 43.1137 28.5457 43.0581 28.113C43.0025 27.6803 42.9748 27.2197 42.9748 26.7312C42.9887 26.2287 43.0303 25.7471 43.0998 25.2865C43.1692 24.8119 43.2734 24.4071 43.4123 24.0721C43.6345 24.0861 43.9956 24.107 44.4956 24.1349C45.0095 24.1489 45.5998 24.1698 46.2664 24.1977C46.947 24.2117 47.6553 24.2256 48.3914 24.2396C49.1275 24.2536 49.8498 24.2675 50.5581 24.2815C51.2803 24.2815 51.9262 24.2815 52.4956 24.2815C53.9539 24.2815 55.572 24.2605 57.3498 24.2187C59.1414 24.1768 60.9192 24.121 62.6831 24.0512C62.7525 24.3164 62.815 24.7002 62.8706 25.2027C62.9262 25.7052 62.9678 26.2636 62.9956 26.8777C63.0234 27.4919 63.0373 28.113 63.0373 28.7412C63.0373 29.3693 63.0164 29.9486 62.9748 30.479C62.9331 30.9954 62.8706 31.4002 62.7873 31.6933C62.1345 31.7771 61.4123 31.8329 60.6206 31.8608C59.8289 31.8888 59.0234 31.8888 58.2039 31.8608C57.3984 31.8329 56.6345 31.7771 55.9123 31.6933C55.7456 31.0373 55.7456 29.5507 55.9123 28.9087H53.4956V30.6255H55.4331V33.5358H53.4748V35.2737H55.9123C55.7456 34.6176 55.7456 33.1241 55.9123 32.468C57.0789 32.3982 58.2734 32.3633 59.4956 32.3633C60.7178 32.3633 61.8567 32.3982 62.9123 32.468C62.9539 32.7193 62.9887 33.1241 63.0164 33.6824C63.0442 34.2268 63.0581 34.8479 63.0581 35.5458C63.0581 36.2298 63.0442 36.9207 63.0164 37.6187C63.0025 38.3166 62.9748 38.9377 62.9331 39.4821C62.8914 40.0265 62.8359 40.4173 62.7664 40.6546C61.3081 40.6267 59.7248 40.5639 58.0164 40.4662C56.3081 40.3824 54.6345 40.3405 52.9956 40.3405C52.1067 40.3405 51.1692 40.3475 50.1831 40.3615C49.2109 40.3894 48.2664 40.4173 47.3498 40.4452C46.447 40.4871 45.6484 40.522 44.9539 40.5499C44.2734 40.5918 43.7803 40.6267 43.4748 40.6546Z" fill="black"/>
<path d="M64.4845 40.6546C64.3734 40.3615 64.2831 39.9916 64.2137 39.5449C64.1442 39.0982 64.1026 38.6376 64.0887 38.163C64.0887 37.6745 64.1026 37.2069 64.1304 36.7602C64.172 36.3136 64.2415 35.9437 64.3387 35.6505C64.5609 35.5668 64.7762 35.4272 64.9845 35.2318C65.1929 35.0224 65.3665 34.6944 65.5054 34.2477C65.6443 33.7871 65.7137 33.145 65.7137 32.3215C65.7137 31.4281 65.6304 30.7581 65.4637 30.3115C65.3109 29.8509 65.1234 29.5438 64.9012 29.3902C64.6929 29.2227 64.5054 29.139 64.3387 29.139C64.2137 28.8877 64.1234 28.5457 64.0679 28.113C64.0123 27.6803 63.9845 27.2197 63.9845 26.7312C63.9984 26.2287 64.0401 25.7471 64.1095 25.2865C64.179 24.8119 64.2831 24.4071 64.422 24.0721C64.8109 24.1 65.2623 24.1419 65.7762 24.1977C66.304 24.2396 66.8387 24.2815 67.3804 24.3234C67.9359 24.3513 68.4498 24.3652 68.922 24.3652C69.9359 24.3652 70.9984 24.3443 72.1095 24.3024C73.2345 24.2466 74.5401 24.1698 76.0262 24.0721C75.804 24.9934 75.7137 25.7471 75.7554 26.3334C75.8109 26.9196 76.0679 27.4291 76.5262 27.8618C76.9845 28.2945 77.6929 28.7412 78.6512 29.2018L79.7634 29.4112L78.922 28.6574C78.047 28.2387 77.4081 27.8478 77.0054 27.4849C76.6165 27.108 76.4081 26.6614 76.3804 26.1449C76.3526 25.6145 76.4429 24.9236 76.6512 24.0721C77.2484 24.0861 77.922 24.1419 78.672 24.2396C79.4359 24.3373 80.304 24.3862 81.2762 24.3862C82.1373 24.3862 82.9151 24.3513 83.6095 24.2815C84.3179 24.1977 84.9568 24.1279 85.5262 24.0721C85.6512 24.4071 85.7484 24.8119 85.8179 25.2865C85.8873 25.7471 85.922 26.2287 85.922 26.7312C85.922 27.2337 85.8943 27.7013 85.8387 28.134C85.7831 28.5667 85.6998 28.9087 85.5887 29.1599C85.422 29.1599 85.2276 29.2437 85.0054 29.4112C84.797 29.5647 84.6165 29.8648 84.4637 30.3115C84.3109 30.7581 84.2345 31.4281 84.2345 32.3215C84.2345 33.145 84.304 33.7871 84.4429 34.2477C84.5817 34.6944 84.7554 35.0224 84.9637 35.2318C85.172 35.4272 85.3873 35.5668 85.6095 35.6505C85.7068 35.9437 85.7692 36.3136 85.797 36.7602C85.8387 37.2069 85.8526 37.6745 85.8387 38.163C85.8387 38.6376 85.804 39.0982 85.7345 39.5449C85.6651 39.9916 85.5748 40.3615 85.4637 40.6546C84.9081 40.5848 84.2067 40.508 83.3595 40.4243C82.5262 40.3545 81.6581 40.3196 80.7554 40.3196C79.5887 40.3196 78.4567 40.3615 77.3595 40.4452C76.2623 40.529 75.0748 40.5988 73.797 40.6546C73.9915 39.7333 74.0679 38.9587 74.0262 38.3305C73.9845 37.7024 73.797 37.1511 73.4637 36.6765C73.1304 36.1879 72.6304 35.7273 71.9637 35.2946L70.695 34.7565L71.6304 35.7971C72.2276 36.2019 72.6651 36.6276 72.9429 37.0743C73.2206 37.507 73.3665 38.0165 73.3804 38.6027C73.4081 39.175 73.3317 39.859 73.1512 40.6546C72.6929 40.5988 72.1304 40.529 71.4637 40.4452C70.8109 40.3615 70.0331 40.3196 69.1304 40.3196C68.2831 40.3196 67.4359 40.3615 66.5887 40.4452C65.7554 40.529 65.054 40.5988 64.4845 40.6546Z" fill="black"/>
<path d="M87.2415 40.6546C87.1304 40.3615 87.0401 39.9916 86.9707 39.5449C86.9013 39.0982 86.8596 38.6376 86.8457 38.163C86.8457 37.6745 86.8596 37.2069 86.8874 36.7602C86.929 36.3136 86.9985 35.9437 87.0957 35.6505C87.3179 35.5668 87.554 35.4272 87.804 35.2318C88.054 35.0364 88.2901 34.7153 88.5124 34.2687C88.7485 33.822 88.929 33.1939 89.054 32.3843C89.1651 31.7143 89.1929 31.1699 89.1374 30.7512C89.0818 30.3185 88.9776 29.9904 88.8249 29.7671C88.686 29.5298 88.5332 29.3693 88.3665 29.2855C88.2138 29.1878 88.0818 29.139 87.9707 29.139C87.8457 28.8877 87.7554 28.5457 87.6999 28.113C87.6443 27.6803 87.6165 27.2197 87.6165 26.7312C87.6304 26.2287 87.6721 25.7471 87.7415 25.2865C87.811 24.8119 87.9151 24.4071 88.054 24.0721C88.5818 24.1279 89.2207 24.1907 89.9707 24.2605C90.7346 24.3303 91.5957 24.3652 92.554 24.3652C93.3318 24.3652 94.1513 24.3513 95.0124 24.3234C95.8874 24.2954 96.7346 24.2605 97.554 24.2187C98.3735 24.1768 99.0888 24.1279 99.6999 24.0721C99.6165 24.6025 99.5957 25.2655 99.6374 26.0612C99.6929 26.8568 99.9082 27.6245 100.283 28.3643C100.297 27.5966 100.318 26.8289 100.346 26.0612C100.387 25.2795 100.457 24.6165 100.554 24.0721C101.137 24.1 101.686 24.1419 102.2 24.1977C102.714 24.2396 103.248 24.2815 103.804 24.3234C104.373 24.3513 105.019 24.3652 105.742 24.3652C106.214 24.3652 106.755 24.3513 107.367 24.3234C107.978 24.2815 108.568 24.2396 109.137 24.1977C109.707 24.1419 110.165 24.1 110.512 24.0721C110.651 24.4071 110.755 24.8119 110.825 25.2865C110.894 25.7471 110.929 26.2287 110.929 26.7312C110.943 27.2197 110.922 27.6803 110.867 28.113C110.811 28.5457 110.721 28.8877 110.596 29.139C110.498 29.139 110.367 29.1878 110.2 29.2855C110.047 29.3693 109.901 29.5298 109.762 29.7671C109.637 29.9904 109.561 30.3115 109.533 30.7302C109.505 31.135 109.561 31.6724 109.7 32.3424C109.88 33.152 110.075 33.7871 110.283 34.2477C110.505 34.6944 110.728 35.0224 110.95 35.2318C111.186 35.4272 111.415 35.5668 111.637 35.6505C111.735 35.9437 111.797 36.3136 111.825 36.7602C111.867 37.2069 111.88 37.6745 111.867 38.163C111.867 38.6376 111.832 39.0982 111.762 39.5449C111.693 39.9916 111.603 40.3615 111.492 40.6546C110.922 40.5988 110.228 40.529 109.408 40.4452C108.603 40.3615 107.582 40.3196 106.346 40.3196C105.165 40.3196 104.04 40.3615 102.971 40.4452C101.915 40.529 101.103 40.5988 100.533 40.6546C100.478 40.3615 100.429 39.9916 100.387 39.5449C100.346 39.0982 100.318 38.6376 100.304 38.163C100.29 37.6745 100.29 37.2069 100.304 36.7602C100.318 36.3136 100.346 35.9437 100.387 35.6505H101.117L100.908 33.3055L99.679 36.8649L95.6374 35.0852L95.3874 35.6505L97.6582 36.6765C97.9776 36.8161 98.2832 36.9696 98.5749 37.1371C98.8665 37.2906 99.1165 37.5 99.3249 37.7652C99.5332 38.0304 99.6721 38.3933 99.7415 38.854C99.8249 39.3006 99.811 39.9009 99.6999 40.6546C99.436 40.6267 99.0679 40.5918 98.5957 40.5499C98.1235 40.522 97.5957 40.4871 97.0124 40.4452C96.4429 40.4173 95.8526 40.3894 95.2415 40.3615C94.6443 40.3336 94.0818 40.3196 93.554 40.3196C92.0124 40.3196 90.7068 40.3615 89.6374 40.4452C88.5818 40.529 87.7832 40.5988 87.2415 40.6546Z" fill="black"/>
<path d="M113.32 40.6546C113.195 40.3615 113.098 39.9916 113.028 39.5449C112.959 39.0982 112.917 38.6376 112.903 38.163C112.89 37.6745 112.903 37.2069 112.945 36.7602C113.001 36.3136 113.077 35.9437 113.174 35.6505C113.383 35.5668 113.591 35.4272 113.799 35.2318C114.022 35.0224 114.202 34.6944 114.341 34.2477C114.48 33.7871 114.549 33.145 114.549 32.3215C114.549 31.4281 114.466 30.7581 114.299 30.3115C114.133 29.8509 113.938 29.5438 113.716 29.3902C113.508 29.2227 113.327 29.139 113.174 29.139C113.049 28.8877 112.952 28.5457 112.883 28.113C112.813 27.6803 112.778 27.2197 112.778 26.7312C112.792 26.2287 112.834 25.7471 112.903 25.2865C112.987 24.8119 113.105 24.4071 113.258 24.0721C113.674 24.1 114.209 24.1419 114.862 24.1977C115.515 24.2536 116.202 24.3024 116.924 24.3443C117.66 24.3722 118.341 24.3862 118.966 24.3862C119.66 24.3862 120.376 24.3722 121.112 24.3443C121.848 24.3024 122.542 24.2536 123.195 24.1977C123.848 24.1419 124.383 24.1 124.799 24.0721C124.938 24.4071 125.042 24.8119 125.112 25.2865C125.181 25.7471 125.216 26.2287 125.216 26.7312C125.216 27.2337 125.188 27.7013 125.133 28.134C125.077 28.5667 124.987 28.9087 124.862 29.1599C124.653 29.1599 124.445 29.2437 124.237 29.4112C124.028 29.5647 123.855 29.8648 123.716 30.3115C123.577 30.7581 123.508 31.4281 123.508 32.3215C123.508 33.145 123.577 33.7871 123.716 34.2477C123.869 34.6944 124.049 35.0224 124.258 35.2318C124.466 35.4272 124.674 35.5668 124.883 35.6505C124.994 35.9437 125.07 36.3136 125.112 36.7602C125.153 37.2069 125.167 37.6745 125.153 38.163C125.14 38.6376 125.098 39.0982 125.028 39.5449C124.959 39.9916 124.862 40.3615 124.737 40.6546C124.32 40.6127 123.785 40.5639 123.133 40.508C122.48 40.4662 121.785 40.4243 121.049 40.3824C120.313 40.3405 119.598 40.3196 118.903 40.3196C118.265 40.3196 117.591 40.3405 116.883 40.3824C116.188 40.4243 115.522 40.4662 114.883 40.508C114.258 40.5639 113.737 40.6127 113.32 40.6546Z" fill="black"/>
<path d="M159.771 40.8012C158.66 40.8012 157.688 40.7802 156.854 40.7384C156.021 40.7104 155.236 40.6755 154.5 40.6337C153.764 40.6058 153 40.5848 152.208 40.5709C151.417 40.5709 150.507 40.5918 149.479 40.6337C149.368 40.3405 149.278 39.9776 149.208 39.5449C149.139 39.0982 149.097 38.6306 149.083 38.1421C149.083 37.6536 149.097 37.1929 149.125 36.7602C149.167 36.3136 149.236 35.9437 149.333 35.6505C149.625 35.5668 149.875 35.4132 150.083 35.1899C150.292 34.9526 150.452 34.5897 150.563 34.1012C150.674 33.6126 150.729 32.9496 150.729 32.1121C150.729 31.3165 150.66 30.7093 150.521 30.2905C150.396 29.8718 150.229 29.5787 150.021 29.4112C149.813 29.2437 149.583 29.139 149.333 29.0971C149.195 28.6923 149.097 28.1828 149.042 27.5687C148.986 26.9405 148.986 26.3054 149.042 25.6634C149.111 25.0073 149.236 24.449 149.417 23.9883C150.306 24.0721 151.146 24.114 151.938 24.114C152.743 24.114 153.57 24.1 154.417 24.0721C155.264 24.0302 156.188 23.9953 157.188 23.9674C158.188 23.9255 159.333 23.9046 160.625 23.9046C163.57 23.9046 165.82 24.5188 167.375 25.7471C168.945 26.9754 169.729 28.9436 169.729 31.6515C169.729 32.5588 169.646 33.4591 169.479 34.3524C169.327 35.2318 169.042 36.0623 168.625 36.844C168.222 37.6117 167.646 38.2956 166.896 38.8959C166.146 39.4821 165.188 39.9497 164.021 40.2987C162.868 40.6337 161.452 40.8012 159.771 40.8012ZM158.833 33.5777H160.104L160.938 30.8768H158L158.833 33.5777Z" fill="black"/>
<path d="M126.931 40.6335C126.82 40.3404 126.729 39.9705 126.66 39.5238C126.59 39.0771 126.549 38.6165 126.535 38.1419C126.535 37.6534 126.549 37.1858 126.576 36.7391C126.618 36.2924 126.688 35.9225 126.785 35.6294C127.007 35.5457 127.222 35.4061 127.431 35.2107C127.639 35.0013 127.813 34.6733 127.951 34.2266C128.09 33.766 128.16 33.1239 128.16 32.3004C128.16 31.407 128.076 30.737 127.91 30.2904C127.757 29.8297 127.57 29.5227 127.347 29.3691C127.139 29.2016 126.951 29.1179 126.785 29.1179C126.66 28.8666 126.57 28.5246 126.514 28.0919C126.458 27.6592 126.431 27.1986 126.431 26.7101C126.445 26.2076 126.486 25.726 126.556 25.2654C126.625 24.7908 126.729 24.386 126.868 24.051C127.257 24.0789 127.708 24.1208 128.222 24.1766C128.75 24.2185 129.285 24.2604 129.826 24.3022C130.382 24.3302 130.896 24.3441 131.368 24.3441C132.382 24.3441 133.445 24.3232 134.556 24.2813C135.681 24.2255 136.986 24.1487 138.472 24.051C138.25 24.9722 138.16 25.726 138.201 26.3122C138.257 26.8985 138.514 27.408 138.972 27.8407C139.431 28.2734 140.139 28.7201 141.097 29.1807L142.21 29.3901L141.368 28.6363C140.493 28.2176 139.854 27.8267 139.451 27.4638C139.063 27.0869 138.854 26.6403 138.826 26.1238C138.799 25.5934 138.889 24.9024 139.097 24.051C139.695 24.0649 140.368 24.1208 141.118 24.2185C141.882 24.3162 142.75 24.3651 143.722 24.3651C144.583 24.3651 145.361 24.3302 146.056 24.2604C146.764 24.1766 147.403 24.1068 147.972 24.051C148.097 24.386 148.195 24.7908 148.264 25.2654C148.333 25.726 148.368 26.2076 148.368 26.7101C148.368 27.2126 148.34 27.6802 148.285 28.1129C148.229 28.5456 148.146 28.8876 148.035 29.1388C147.868 29.1388 147.674 29.2226 147.451 29.3901C147.243 29.5436 147.063 29.8437 146.91 30.2904C146.757 30.737 146.681 31.407 146.681 32.3004C146.681 33.1239 146.75 33.766 146.889 34.2266C147.028 34.6733 147.201 35.0013 147.41 35.2107C147.618 35.4061 147.833 35.5457 148.056 35.6294C148.153 35.9225 148.215 36.2924 148.243 36.7391C148.285 37.1858 148.299 37.6534 148.285 38.1419C148.285 38.6165 148.25 39.0771 148.181 39.5238C148.111 39.9705 148.021 40.3404 147.91 40.6335C147.354 40.5637 146.653 40.4869 145.806 40.4032C144.972 40.3334 144.104 40.2985 143.201 40.2985C142.035 40.2985 140.903 40.3404 139.806 40.4241C138.708 40.5079 137.521 40.5777 136.243 40.6335C136.438 39.7122 136.514 38.9375 136.472 38.3094C136.431 37.6813 136.243 37.1299 135.91 36.6554C135.576 36.1668 135.076 35.7062 134.41 35.2735L133.141 34.7353L134.076 35.776C134.674 36.1808 135.111 36.6065 135.389 37.0532C135.667 37.4859 135.813 37.9954 135.826 38.5816C135.854 39.1539 135.778 39.8379 135.597 40.6335C135.139 40.5777 134.576 40.5079 133.91 40.4241C133.257 40.3404 132.479 40.2985 131.577 40.2985C130.729 40.2985 129.882 40.3404 129.035 40.4241C128.201 40.5079 127.5 40.5777 126.931 40.6335Z" fill="black"/>
<path d="M49.6999 51.2216C49.0141 51.2216 48.49 51.0341 48.1276 50.659C47.6415 50.1988 47.3984 49.5357 47.3984 48.6699C47.3984 47.7866 47.6415 47.1236 48.1276 46.6808C48.49 46.3057 49.0141 46.1181 49.6999 46.1181C50.3856 46.1181 50.9097 46.3057 51.2721 46.6808C51.7561 47.1236 51.998 47.7866 51.998 48.6699C51.998 49.5357 51.7561 50.1988 51.2721 50.659C50.9097 51.0341 50.3856 51.2216 49.6999 51.2216ZM50.6471 49.9261C50.8793 49.6317 50.9954 49.213 50.9954 48.6699C50.9954 48.129 50.8783 47.7113 50.6439 47.4169C50.4117 47.1203 50.097 46.972 49.6999 46.972C49.3027 46.972 48.9859 47.1192 48.7493 47.4136C48.5128 47.7081 48.3945 48.1268 48.3945 48.6699C48.3945 49.213 48.5128 49.6317 48.7493 49.9261C48.9859 50.2206 49.3027 50.3678 49.6999 50.3678C50.097 50.3678 50.4128 50.2206 50.6471 49.9261Z" fill="black"/>
<path d="M60.3874 49.3536H59.3685V51.0875H58.3724V46.2654H60.4622C60.944 46.2654 61.3281 46.3897 61.6146 46.6383C61.901 46.8869 62.0443 47.2719 62.0443 47.7931C62.0443 48.3624 61.901 48.7648 61.6146 49.0003C61.3281 49.2359 60.9191 49.3536 60.3874 49.3536ZM60.8561 48.3493C60.9863 48.2337 61.0514 48.0505 61.0514 47.7997C61.0514 47.5489 60.9852 47.37 60.8529 47.2632C60.7227 47.1563 60.5393 47.1029 60.3027 47.1029H59.3685V48.5227H60.3027C60.5393 48.5227 60.7237 48.4649 60.8561 48.3493Z" fill="black"/>
<path d="M71.7194 48.9807H69.3887V50.2206H72.0449V51.0875H68.4089V46.2654H71.9277V47.1192H69.3887V48.1432H71.7194V48.9807Z" fill="black"/>
<path d="M82.2897 51.0875H81.2871L79.3275 47.6623V51.0875H78.3932V46.2654H79.4447L81.3555 49.6317V46.2654H82.2897V51.0875Z" fill="black"/>
<path d="M89.7285 51.0875H88.7943V46.2654H90.2526L91.125 50.057L91.9909 46.2654H93.4329V51.0875H92.4987V47.8258C92.4987 47.7321 92.4998 47.6012 92.5019 47.4333C92.5041 47.2632 92.5052 47.1323 92.5052 47.0407L91.597 51.0875H90.6237L89.722 47.0407C89.722 47.1323 89.7231 47.2632 89.7253 47.4333C89.7274 47.6012 89.7285 47.7321 89.7285 47.8258V51.0875Z" fill="black"/>
<path d="M99.8691 46.2654H100.865V51.0875H99.8691V46.2654Z" fill="black"/>
<path d="M111.266 51.0875H110.264L108.304 47.6623V51.0875H107.37V46.2654H108.421L110.332 49.6317V46.2654H111.266V51.0875Z" fill="black"/>
<path d="M119.854 51.0875H117.787V46.2654H119.854C120.151 46.2697 120.399 46.3046 120.596 46.37C120.933 46.4813 121.205 46.6852 121.413 46.9818C121.58 47.2217 121.694 47.4813 121.755 47.7604C121.816 48.0396 121.846 48.3057 121.846 48.5587C121.846 49.1999 121.718 49.7429 121.462 50.1879C121.115 50.7876 120.579 51.0875 119.854 51.0875ZM120.6 47.4954C120.446 47.2337 120.141 47.1029 119.685 47.1029H118.76V50.25H119.685C120.158 50.25 120.488 50.0156 120.674 49.5466C120.776 49.2893 120.827 48.9829 120.827 48.6274C120.827 48.1366 120.752 47.7593 120.6 47.4954Z" fill="black"/>
</g>
<defs>
<clipPath id="clip0_30_6447">
<rect width="170" height="67" fill="white"/>
</clipPath>
</defs>
</svg>
