<svg width="426" height="187" viewBox="0 0 426 187" fill="none" xmlns="http://www.w3.org/2000/svg">
<g clip-path="url(#clip0_25_6563)">
<path d="M189.233 135.322C241 168.778 292.547 177.323 304.366 154.409C316.185 131.495 283.8 85.798 232.032 52.3423C180.265 18.8869 128.718 10.3412 116.899 33.2556C105.08 56.1695 137.465 101.867 189.233 135.322Z" stroke="#959595" stroke-width="0.5" stroke-miterlimit="10"/>
<path d="M180.368 127.709C222.636 175.022 270.451 198.21 287.165 179.501C303.879 160.791 283.164 107.269 240.896 59.9558C198.628 12.6427 150.813 -10.5456 134.099 8.16385C117.385 26.873 138.1 80.3954 180.368 127.709Z" stroke="#CACACA" stroke-width="0.5" stroke-miterlimit="10"/>
<path d="M25.3199 114.521C16.9669 114.521 10.65 112.534 6.36912 108.56C2.12304 104.586 0 98.7036 0 90.9119C0 82.3411 2.15784 76.0493 6.47353 72.0366C10.7892 68.0239 17.1583 66.0175 25.5809 66.0175C34.5603 66.0175 41.1382 68.0044 45.3147 71.9782C49.4912 75.913 51.5794 81.7178 51.5794 89.3925C51.5794 98.0803 49.3694 104.45 44.9493 108.502C40.5292 112.514 33.986 114.521 25.3199 114.521ZM24.1713 94.0091H27.3559L28.8886 86.4881H22.6239L24.1713 94.0091Z" fill="black"/>
<path d="M54.1049 113.469C53.7916 112.651 53.548 111.618 53.374 110.372C53.2 109.125 53.0956 107.839 53.0608 106.515C53.0259 105.151 53.0608 103.846 53.1652 102.599C53.3044 101.353 53.4958 100.32 53.7394 99.5022C54.2615 99.2685 54.7661 98.8789 55.2534 98.3335C55.7755 97.7491 56.2105 96.8336 56.5585 95.5869C56.9066 94.3013 57.0806 92.5092 57.0806 90.2107C57.0806 87.7173 56.8718 85.8473 56.4541 84.6007C56.0713 83.315 55.6014 82.458 55.0446 82.0294C54.5225 81.5619 54.0527 81.3282 53.635 81.3282C53.3218 80.6269 53.0956 79.6724 52.9563 78.4647C52.8171 77.257 52.7475 75.9714 52.7475 74.6079C52.7823 73.2054 52.8867 71.8613 53.0608 70.5757C53.2348 69.2511 53.4958 68.1213 53.8438 67.1863C56.4193 67.3032 58.7338 67.3226 60.7872 67.2447C62.8755 67.1668 64.9463 67.0499 66.9997 66.8941C69.088 66.7383 71.3502 66.6019 73.7865 66.485C76.2576 66.3292 79.1637 66.2513 82.5049 66.2513C87.4122 66.2513 91.5539 66.7383 94.9299 67.7122C98.3058 68.6472 100.864 70.3809 102.604 72.9132C104.379 75.4065 105.267 78.9712 105.267 83.6072C105.267 87.6199 104.588 90.834 103.231 93.2494C101.908 95.6648 99.9938 97.418 97.488 98.5088C94.9821 99.5607 91.9715 100.087 88.4563 100.087C86.2289 100.087 84.4539 99.8918 83.1313 99.5022C81.8088 99.0737 80.5907 98.1387 79.4769 96.6972L78.3806 97.8075C79.2855 99.0153 80.3818 99.9502 81.6696 100.613C82.9573 101.236 84.5583 101.587 86.4725 101.664C86.7858 102.755 86.7418 103.306 87.3592 105.188C87.6716 106.14 87.3592 106.357 88.4033 108.694C88.9254 109.863 89.8303 112.24 89.4474 113.369C87.742 113.214 82.0872 113.06 79.0593 112.826C76.0661 112.592 72.638 112.495 68.7747 112.534C66.8257 112.534 64.9115 112.592 63.0321 112.709C61.1527 112.826 59.4299 112.943 57.8637 113.06C56.3323 113.216 55.0794 113.352 54.1049 113.469ZM78.3806 87.6979H81.5652L83.6534 83.7825H76.2924L78.3806 87.6979Z" fill="black"/>
<path d="M108.943 113.469C108.664 112.651 108.438 111.618 108.264 110.372C108.09 109.125 107.986 107.839 107.951 106.515C107.951 105.151 107.986 103.846 108.055 102.599C108.16 101.353 108.334 100.32 108.577 99.5022C109.134 99.2685 109.674 98.8789 110.196 98.3335C110.718 97.7491 111.153 96.8336 111.501 95.5869C111.849 94.3013 114.111 92.5092 114.111 90.2107C114.111 87.7173 111.814 85.8473 111.396 84.6007C111.013 83.315 110.544 82.458 109.987 82.0294C109.465 81.5619 108.995 81.3282 108.577 81.3282C108.264 80.6269 108.038 79.6724 107.899 78.4647C107.759 77.257 107.69 75.9714 107.69 74.6079C107.725 73.2054 107.829 71.8613 108.003 70.5757C108.177 69.2511 108.438 68.1213 108.786 67.1863C109.343 67.2253 110.248 67.2837 111.501 67.3616C112.788 67.4006 114.268 67.459 115.938 67.5369C117.644 67.5759 119.419 67.6148 121.263 67.6538C123.108 67.6928 124.918 67.7317 126.693 67.7707C128.502 67.7707 130.121 67.7707 131.548 67.7707C135.202 67.7707 139.257 67.7122 143.712 67.5954C148.201 67.4785 152.656 67.3226 157.076 67.1279C157.25 67.8681 157.407 68.9394 157.546 70.3419C157.686 71.7444 157.79 73.3028 157.86 75.0169C157.929 76.7311 157.964 78.4647 157.964 80.2179C157.964 81.971 157.912 83.5878 157.807 85.0682C157.703 86.5096 157.546 87.6394 157.338 88.4575C155.702 88.6913 153.892 88.8471 151.908 88.925C149.924 89.003 147.906 89.003 145.852 88.925C143.834 88.8471 141.919 88.6913 140.11 88.4575C139.692 86.6265 139.692 82.4774 140.11 80.6854H134.054V85.4772H138.909V93.6H134.001V98.4504H140.11C139.692 96.6193 139.692 92.4508 140.11 90.6197C143.033 90.4249 146.026 90.3275 149.089 90.3275C152.152 90.3275 155.006 90.4249 157.651 90.6197C157.755 91.321 157.842 92.4508 157.912 94.0091C157.981 95.5285 158.016 97.2621 158.016 99.21C158.016 101.119 157.981 103.047 157.912 104.995C157.877 106.943 157.807 108.677 157.703 110.196C157.599 111.716 157.459 112.807 157.285 113.469C153.631 113.391 149.663 113.216 145.382 112.943C141.101 112.709 136.908 112.592 132.801 112.592C130.573 112.592 128.224 112.612 125.753 112.651C123.317 112.729 120.95 112.807 118.653 112.884C116.391 113.001 114.389 113.099 112.649 113.177C110.944 113.293 109.708 113.391 108.943 113.469Z" fill="black"/>
<path d="M161.591 113.469C161.312 112.651 161.086 111.618 160.912 110.372C160.738 109.125 160.634 107.839 160.599 106.515C160.599 105.151 160.634 103.846 160.703 102.599C160.808 101.353 160.982 100.32 161.225 99.5022C161.782 99.2685 162.322 98.8789 162.844 98.3335C163.366 97.7491 163.801 96.8336 164.149 95.5869C164.497 94.3013 164.671 92.5092 164.671 90.2107C164.671 87.7173 164.462 85.8473 164.044 84.6007C163.661 83.315 163.192 82.458 162.635 82.0294C162.113 81.5619 161.643 81.3282 161.225 81.3282C160.912 80.6269 160.686 79.6724 160.547 78.4647C160.407 77.257 160.338 75.9714 160.338 74.6079C160.373 73.2054 160.477 71.8613 160.651 70.5757C160.825 69.2511 161.086 68.1213 161.434 67.1863C162.409 67.2642 163.54 67.3811 164.827 67.5369C166.15 67.6538 167.49 67.7707 168.847 67.8875C170.239 67.9655 171.527 68.0044 172.711 68.0044C175.251 68.0044 177.914 67.946 180.698 67.8291C183.517 67.6733 186.789 67.459 190.513 67.1863C189.956 69.7575 189.73 71.8613 189.834 73.4975C189.973 75.1338 190.617 76.5558 191.766 77.7635C192.914 78.9712 194.689 80.2179 197.091 81.5035L199.878 82.0879L197.769 79.9841C195.577 78.8154 193.976 77.7245 192.966 76.7116C191.992 75.6597 191.47 74.4131 191.4 72.9716C191.331 71.4912 191.557 69.5628 192.079 67.1863C193.575 67.2253 195.263 67.3811 197.143 67.6538C199.057 67.9265 201.232 68.0629 203.669 68.0629C205.826 68.0629 207.775 67.9655 209.516 67.7707C211.291 67.5369 212.892 67.3421 214.319 67.1863C214.632 68.1213 214.875 69.2511 215.049 70.5757C215.223 71.8613 215.311 73.2054 215.311 74.6079C215.311 76.0104 215.241 77.3155 215.102 78.5232C214.962 79.7309 214.754 80.6854 214.475 81.3866C214.058 81.3866 213.57 81.6204 213.013 82.0879C212.491 82.5164 212.039 83.354 211.656 84.6007C211.273 85.8473 211.082 87.7173 211.082 90.2107C211.082 92.5092 211.256 94.3013 211.604 95.5869C211.952 96.8336 212.387 97.7491 212.909 98.3335C213.431 98.8789 213.971 99.2685 214.527 99.5022C214.771 100.32 214.928 101.353 214.997 102.599C215.102 103.846 215.136 105.151 215.102 106.515C215.102 107.839 215.015 109.125 214.841 110.372C214.667 111.618 214.44 112.651 214.162 113.469C212.77 113.274 211.012 113.06 208.889 112.826C206.801 112.631 204.626 112.534 202.363 112.534C199.44 112.534 196.603 112.651 193.854 112.884C191.104 113.118 188.129 113.313 184.927 113.469C185.414 110.898 185.605 108.735 185.501 106.982C185.397 105.229 184.927 103.69 184.091 102.366C183.256 101.002 182.003 99.7165 180.333 98.5088L177.153 97.0068L179.497 99.9113C180.994 101.041 182.09 102.229 182.786 103.476C183.482 104.684 183.848 106.106 183.883 107.742C183.952 109.339 183.761 111.248 183.308 113.469C182.16 113.313 180.75 113.118 179.08 112.884C177.444 112.651 175.495 112.534 173.233 112.534C171.11 112.534 168.986 112.651 166.863 112.884C164.775 113.118 163.018 113.313 161.591 113.469Z" fill="black"/>
<path d="M218.617 113.469C218.339 112.651 218.112 111.618 217.938 110.372C217.764 109.125 217.66 107.839 217.625 106.515C217.625 105.151 217.66 103.846 217.73 102.599C217.834 101.353 218.008 100.32 218.252 99.5022C218.808 99.2685 219.4 98.8789 220.027 98.3335C220.653 97.7881 221.245 96.892 221.802 95.6454C222.393 94.3987 222.846 92.6456 223.159 90.386C223.437 88.516 223.507 86.9966 223.368 85.8279C223.229 84.6201 222.968 83.7046 222.585 83.0813C222.237 82.419 221.854 81.971 221.436 81.7372C221.053 81.4645 220.723 81.3282 220.444 81.3282C220.131 80.6269 219.905 79.6724 219.766 78.4647C219.626 77.257 219.557 75.9714 219.557 74.6079C219.592 73.2054 219.696 71.8613 219.87 70.5757C220.044 69.2511 220.305 68.1213 220.653 67.1863C221.976 67.3421 223.577 67.5174 225.456 67.7122C227.37 67.907 229.528 68.0044 231.93 68.0044C233.879 68.0044 235.932 67.9655 238.09 67.8875C240.282 67.8096 242.406 67.7122 244.459 67.5954C246.512 67.4785 248.305 67.3421 249.836 67.1863C249.627 68.6667 249.575 70.5172 249.68 72.7379C249.819 74.9585 250.358 77.1012 251.298 79.166C251.333 77.0233 251.385 74.8806 251.455 72.7379C251.559 70.5562 251.733 68.7057 251.977 67.1863C253.438 67.2642 254.813 67.3811 256.101 67.5369C257.389 67.6538 258.729 67.7707 260.121 67.8875C261.548 67.9655 263.166 68.0044 264.976 68.0044C266.159 68.0044 267.517 67.9655 269.048 67.8875C270.579 67.7707 272.058 67.6538 273.485 67.5369C274.912 67.3811 276.061 67.2642 276.931 67.1863C277.279 68.1213 277.54 69.2511 277.714 70.5757C277.888 71.8613 277.975 73.2054 277.975 74.6079C278.01 75.9714 277.958 77.257 277.818 78.4647C277.679 79.6724 277.453 80.6269 277.14 81.3282C276.896 81.3282 276.566 81.4645 276.148 81.7372C275.765 81.971 275.4 82.419 275.052 83.0813C274.738 83.7046 274.547 84.6007 274.477 85.7694C274.408 86.8992 274.547 88.3991 274.895 90.2691C275.347 92.5287 275.835 94.3013 276.357 95.5869C276.914 96.8336 277.47 97.7491 278.027 98.3335C278.619 98.8789 279.193 99.2685 279.75 99.5022C279.994 100.32 280.15 101.353 280.22 102.599C280.324 103.846 280.359 105.151 280.324 106.515C280.324 107.839 280.237 109.125 280.063 110.372C279.889 111.618 279.663 112.651 279.385 113.469C277.958 113.313 276.218 113.118 274.164 112.884C272.145 112.651 269.587 112.534 266.49 112.534C263.531 112.534 260.712 112.651 258.032 112.884C255.387 113.118 253.351 113.313 251.924 113.469C251.785 112.651 251.663 111.618 251.559 110.372C251.455 109.125 251.385 107.839 251.35 106.515C251.315 105.151 251.315 103.846 251.35 102.599C251.385 101.353 251.455 100.32 251.559 99.5022H253.386L252.864 92.9572L249.784 102.892L239.656 97.9244L239.03 99.5022L244.72 102.366C245.52 102.755 246.286 103.184 247.017 103.651C247.748 104.08 248.374 104.664 248.896 105.404C249.418 106.145 249.767 107.158 249.941 108.443C250.149 109.69 250.115 111.365 249.836 113.469C249.175 113.391 248.253 113.293 247.069 113.177C245.886 113.099 244.563 113.001 243.102 112.884C241.675 112.807 240.195 112.729 238.664 112.651C237.168 112.573 235.758 112.534 234.435 112.534C230.572 112.534 227.301 112.651 224.621 112.884C221.976 113.118 219.974 113.313 218.617 113.469Z" fill="black"/>
<path d="M283.967 113.469C283.654 112.651 283.41 111.618 283.236 110.372C283.062 109.125 282.958 107.839 282.923 106.515C282.888 105.151 282.923 103.846 283.027 102.599C283.166 101.353 283.358 100.32 283.601 99.5022C284.124 99.2685 284.646 98.8789 285.168 98.3335C285.725 97.7491 286.177 96.8336 286.525 95.5869C286.873 94.3013 287.047 92.5092 287.047 90.2107C287.047 87.7173 286.838 85.8473 286.421 84.6007C286.003 83.315 285.516 82.458 284.959 82.0294C284.437 81.5619 283.984 81.3282 283.601 81.3282C283.288 80.6269 283.045 79.6724 282.871 78.4647C282.697 77.257 282.61 75.9714 282.61 74.6079C282.644 73.2054 282.749 71.8613 282.923 70.5757C283.132 69.2511 283.427 68.1213 283.81 67.1863C284.854 67.2642 286.194 67.3811 287.83 67.5369C289.466 67.6928 291.189 67.8291 292.999 67.946C294.843 68.0239 296.549 68.0629 298.115 68.0629C299.855 68.0629 301.647 68.0239 303.492 67.946C305.337 67.8291 307.077 67.6928 308.713 67.5369C310.348 67.3811 311.688 67.2642 312.732 67.1863C313.08 68.1213 313.341 69.2511 313.515 70.5757C313.69 71.8613 313.777 73.2054 313.777 74.6079C313.777 76.0104 313.707 77.3155 313.568 78.5232C313.428 79.7309 313.202 80.6854 312.889 81.3866C312.367 81.3866 311.845 81.6204 311.323 82.0879C310.801 82.5164 310.366 83.354 310.018 84.6007C309.67 85.8473 309.496 87.7173 309.496 90.2107C309.496 92.5092 309.67 94.3013 310.018 95.5869C310.401 96.8336 310.853 97.7491 311.375 98.3335C311.897 98.8789 312.419 99.2685 312.941 99.5022C313.22 100.32 313.411 101.353 313.515 102.599C313.62 103.846 313.655 105.151 313.62 106.515C313.585 107.839 313.481 109.125 313.307 110.372C313.133 111.618 312.889 112.651 312.576 113.469C311.532 113.352 310.192 113.216 308.556 113.06C306.92 112.943 305.18 112.826 303.335 112.709C301.491 112.592 299.698 112.534 297.958 112.534C296.357 112.534 294.669 112.592 292.894 112.709C291.154 112.826 289.483 112.943 287.882 113.06C286.316 113.216 285.011 113.352 283.967 113.469Z" fill="black"/>
<path d="M400.367 113.878C397.583 113.878 395.147 113.819 393.058 113.703C390.97 113.625 389.004 113.527 387.159 113.41C385.315 113.332 383.4 113.274 381.417 113.235C379.433 113.235 377.153 113.293 374.578 113.41C374.299 112.592 374.073 111.579 373.899 110.372C373.725 109.125 373.62 107.82 373.586 106.456C373.586 105.093 373.62 103.807 373.69 102.599C373.794 101.353 373.969 100.32 374.212 99.5022C374.943 99.2685 375.569 98.8399 376.092 98.2166C376.614 97.5543 377.014 96.5414 377.292 95.1779C377.571 93.8143 377.71 91.9638 377.71 89.6263C377.71 87.4057 377.536 85.711 377.188 84.5422C376.875 83.3735 376.457 82.5554 375.935 82.0879C375.413 81.6204 374.839 81.3282 374.212 81.2113C373.864 80.0815 373.62 78.6595 373.481 76.9454C373.342 75.1922 373.342 73.4196 373.481 71.6276C373.655 69.7965 373.968 68.2382 374.421 66.9525C376.648 67.1863 378.754 67.3032 380.738 67.3032C382.757 67.3032 384.827 67.2642 386.95 67.1863C389.073 67.0694 391.388 66.972 393.894 66.8941C396.4 66.7772 399.271 66.7188 402.508 66.7188C409.886 66.7188 415.524 68.433 419.422 71.8613C423.355 75.2896 425.322 80.7828 425.322 88.3407C425.322 90.873 425.113 93.3858 424.695 95.8791C424.312 98.3335 423.599 100.652 422.555 102.833C421.545 104.976 420.101 106.885 418.222 108.56C416.342 110.196 413.941 111.501 411.017 112.475C408.129 113.41 404.579 113.878 400.367 113.878ZM398.018 93.7169H401.203L403.291 86.1785H395.93L398.018 93.7169Z" fill="black"/>
<path d="M318.073 113.41C317.795 112.592 317.569 111.559 317.395 110.313C317.221 109.066 317.116 107.78 317.081 106.456C317.081 105.092 317.116 103.787 317.186 102.54C317.29 101.294 317.464 100.261 317.708 99.4433C318.265 99.2096 318.804 98.82 319.326 98.2746C319.848 97.6902 320.283 96.7747 320.631 95.528C320.979 94.2424 321.153 92.4503 321.153 90.1517C321.153 87.6584 320.945 85.7884 320.527 84.5417C320.144 83.2561 319.674 82.399 319.117 81.9705C318.595 81.503 318.126 81.2692 317.708 81.2692C317.395 80.568 317.168 79.6135 317.029 78.4058C316.89 77.1981 316.82 75.9125 316.82 74.5489C316.855 73.1464 316.96 71.8024 317.134 70.5167C317.308 69.1922 317.569 68.0624 317.917 67.1274C318.891 67.2053 320.022 67.3222 321.31 67.478C322.633 67.5949 323.973 67.7117 325.33 67.8286C326.722 67.9065 328.01 67.9455 329.193 67.9455C331.734 67.9455 334.396 67.8871 337.181 67.7702C340 67.6144 343.271 67.4001 346.995 67.1274C346.439 69.6986 346.212 71.8024 346.317 73.4386C346.456 75.0749 347.1 76.4969 348.248 77.7046C349.397 78.9123 351.172 80.1589 353.573 81.4446L356.36 82.0289L354.252 79.9252C352.059 78.7564 350.458 77.6656 349.449 76.6527C348.475 75.6008 347.952 74.3541 347.883 72.9127C347.813 71.4323 348.039 69.5038 348.562 67.1274C350.058 67.1663 351.746 67.3222 353.626 67.5949C355.54 67.8676 357.715 68.0039 360.151 68.0039C362.309 68.0039 364.258 67.9065 365.998 67.7117C367.773 67.478 369.374 67.2832 370.801 67.1274C371.114 68.0624 371.358 69.1922 371.532 70.5167C371.706 71.8024 371.793 73.1464 371.793 74.5489C371.793 75.9514 371.724 77.2565 371.584 78.4642C371.445 79.672 371.236 80.6264 370.958 81.3277C370.54 81.3277 370.053 81.5614 369.496 82.0289C368.974 82.4575 368.522 83.2951 368.139 84.5417C367.756 85.7884 367.564 87.6584 367.564 90.1517C367.564 92.4503 367.739 94.2424 368.087 95.528C368.435 96.7747 368.87 97.6902 369.392 98.2746C369.914 98.82 370.453 99.2096 371.01 99.4433C371.254 100.261 371.41 101.294 371.48 102.54C371.584 103.787 371.619 105.092 371.584 106.456C371.584 107.78 371.497 109.066 371.323 110.313C371.149 111.559 370.923 112.592 370.645 113.41C369.252 113.215 367.495 113.001 365.372 112.767C363.284 112.572 361.108 112.475 358.846 112.475C355.923 112.475 353.086 112.592 350.337 112.825C347.587 113.059 344.611 113.254 341.409 113.41C341.897 110.839 342.088 108.676 341.984 106.923C341.879 105.17 341.409 103.631 340.574 102.307C339.739 100.943 338.486 99.6576 336.815 98.4499L333.636 96.9479L335.98 99.8524C337.477 100.982 338.573 102.17 339.269 103.417C339.965 104.625 340.33 106.047 340.365 107.683C340.435 109.28 340.243 111.189 339.791 113.41C338.642 113.254 337.233 113.059 335.562 112.825C333.926 112.592 331.977 112.475 329.715 112.475C327.592 112.475 325.469 112.592 323.346 112.825C321.258 113.059 319.5 113.254 318.073 113.41Z" fill="black"/>
<path d="M124.542 142.962C122.823 142.962 121.51 142.438 120.602 141.391C119.383 140.107 118.774 138.256 118.774 135.84C118.774 133.374 119.383 131.524 120.602 130.288C121.51 129.241 122.823 128.718 124.542 128.718C126.26 128.718 127.573 129.241 128.481 130.288C129.694 131.524 130.3 133.374 130.3 135.84C130.3 138.256 129.694 140.107 128.481 141.391C127.573 142.438 126.26 142.962 124.542 142.962ZM126.915 139.346C127.497 138.524 127.788 137.356 127.788 135.84C127.788 134.33 127.494 133.164 126.907 132.343C126.325 131.515 125.537 131.101 124.542 131.101C123.546 131.101 122.752 131.512 122.16 132.334C121.567 133.155 121.271 134.324 121.271 135.84C121.271 137.356 121.567 138.524 122.16 139.346C122.752 140.168 123.546 140.579 124.542 140.579C125.537 140.579 126.328 140.168 126.915 139.346Z" fill="black"/>
<path d="M151.323 137.748H148.77V142.587H146.274V129.129H151.511C152.718 129.129 153.681 129.476 154.398 130.17C155.116 130.863 155.475 131.938 155.475 133.393C155.475 134.981 155.116 136.105 154.398 136.762C153.681 137.419 152.655 137.748 151.323 137.748ZM152.498 134.945C152.824 134.622 152.987 134.111 152.987 133.411C152.987 132.711 152.821 132.212 152.49 131.914C152.163 131.615 151.704 131.466 151.111 131.466H148.77V135.429H151.111C151.704 135.429 152.166 135.268 152.498 134.945Z" fill="black"/>
<path d="M179.72 136.707H173.879V140.168H180.536V142.587H171.424V129.129H180.242V131.512H173.879V134.37H179.72V136.707Z" fill="black"/>
<path d="M206.208 142.587H203.695L198.785 133.027V142.587H196.444V129.129H199.078L203.867 138.524V129.129H206.208V142.587Z" fill="black"/>
<path d="M224.849 142.587H222.507V129.129H226.162L228.348 139.711L230.518 129.129H234.131V142.587H231.79V133.484C231.79 133.222 231.793 132.857 231.798 132.388C231.804 131.914 231.807 131.548 231.807 131.293L229.531 142.587H227.092L224.832 131.293C224.832 131.548 224.835 131.914 224.84 132.388C224.846 132.857 224.849 133.222 224.849 133.484V142.587Z" fill="black"/>
<path d="M250.26 129.129H252.756V142.587H250.26V129.129Z" fill="black"/>
<path d="M278.82 142.587H276.307L271.397 133.027V142.587H269.056V129.129H271.69L276.479 138.524V129.129H278.82V142.587Z" fill="black"/>
<path d="M300.34 142.587H295.16V129.129H300.34C301.085 129.141 301.705 129.238 302.2 129.421C303.043 129.731 303.725 130.3 304.247 131.128C304.666 131.798 304.951 132.522 305.104 133.301C305.256 134.081 305.332 134.823 305.332 135.529C305.332 137.319 305.011 138.835 304.37 140.077C303.499 141.75 302.156 142.587 300.34 142.587ZM302.208 132.562C301.822 131.831 301.058 131.466 299.916 131.466H297.599V140.25H299.916C301.101 140.25 301.928 139.596 302.396 138.287C302.651 137.569 302.779 136.713 302.779 135.721C302.779 134.351 302.589 133.298 302.208 132.562Z" fill="black"/>
</g>
<defs>
<clipPath id="clip0_25_6563">
<rect width="426" height="187" fill="white"/>
</clipPath>
</defs>
</svg>
