<svg xmlns="http://www.w3.org/2000/svg" width="16" height="16" viewBox="0 0 16 16" fill="none">
  <path fill-rule="evenodd" clip-rule="evenodd" d="M6.87659 1.13024C6.95684 0.94968 7.1359 0.833313 7.3335 0.833313C7.99654 0.833313 8.63242 1.09671 9.10126 1.56555C9.5701 2.03439 9.8335 2.67027 9.8335 3.33331V5.49998H13.1042C13.3689 5.49742 13.6311 5.55222 13.8726 5.66063C14.1151 5.76945 14.331 5.92968 14.5054 6.13023C14.6798 6.33078 14.8085 6.56685 14.8826 6.82208C14.9567 7.0773 14.9744 7.34559 14.9345 7.60835L14.0145 13.6083C14.0145 13.6083 14.0145 13.6082 14.0145 13.6083C13.9482 14.0454 13.7261 14.4439 13.3893 14.7303C13.0531 15.016 12.6253 15.1709 12.1842 15.1666H2.66683C2.1806 15.1666 1.71428 14.9735 1.37047 14.6297C1.02665 14.2859 0.833496 13.8195 0.833496 13.3333V8.66665C0.833496 8.18042 1.02665 7.7141 1.37047 7.37028C1.71428 7.02647 2.1806 6.83331 2.66683 6.83331H4.34189L6.87659 1.13024ZM5.16683 7.43942L7.644 1.8658C7.92601 1.92547 8.18721 2.0657 8.39416 2.27265C8.67546 2.55396 8.8335 2.93549 8.8335 3.33331V5.99998C8.8335 6.27612 9.05735 6.49998 9.3335 6.49998H13.1068L13.1125 6.49995C13.2333 6.49858 13.3529 6.52349 13.4631 6.57296C13.5734 6.62242 13.6715 6.69525 13.7508 6.78641C13.83 6.87757 13.8885 6.98487 13.9222 7.10089C13.9559 7.21682 13.9639 7.33869 13.9459 7.45805C13.9458 7.45813 13.9459 7.45797 13.9459 7.45805L13.0258 13.4583C12.9957 13.6571 12.8947 13.8382 12.7416 13.9683C12.5885 14.0985 12.3935 14.169 12.1925 14.1667L5.16683 14.1666V7.43942ZM4.16683 14.1666V7.83331H2.66683C2.44582 7.83331 2.23385 7.92111 2.07757 8.07739C1.92129 8.23367 1.8335 8.44563 1.8335 8.66665V13.3333C1.8335 13.5543 1.92129 13.7663 2.07757 13.9226C2.23385 14.0788 2.44582 14.1666 2.66683 14.1666H4.16683Z" fill="#818181"/>
</svg>